<?xml version="1.0" standalone="no"?>
<!DOCTYPE svg PUBLIC "-//W3C//DTD SVG 20010904//EN"
 "http://www.w3.org/TR/2001/REC-SVG-20010904/DTD/svg10.dtd">
<svg version="1.0" xmlns="http://www.w3.org/2000/svg"
 width="1555.000000pt" height="1555.000000pt" viewBox="0 0 1555.000000 1555.000000"
 preserveAspectRatio="xMidYMid meet">

<g transform="translate(0.000000,1555.000000) scale(0.100000,-0.100000)"
fill="#000000" stroke="none">
<path d="M7475 15529 c-1555 -56 -3077 -593 -4325 -1524 -996 -743 -1794
-1700 -2335 -2800 -156 -317 -246 -531 -358 -846 -512 -1438 -581 -3043 -197
-4534 618 -2396 2371 -4374 4679 -5282 713 -280 1412 -441 2241 -515 228 -20
1026 -17 1260 5 907 87 1688 287 2475 634 1851 818 3324 2344 4075 4222 240
602 407 1241 489 1881 48 369 55 505 56 990 0 475 -5 573 -46 930 -183 1582
-861 3073 -1944 4280 -136 151 -470 483 -616 612 -1259 1110 -2790 1771 -4455
1923 -163 15 -626 36 -739 33 -33 -1 -150 -4 -260 -9z m735 -1219 c1807 -125
3454 -968 4610 -2359 1200 -1444 1720 -3321 1434 -5181 -191 -1245 -744 -2412
-1590 -3359 -141 -159 -455 -469 -599 -592 -1408 -1208 -3192 -1762 -5020
-1558 -2190 244 -4121 1590 -5119 3569 -400 793 -628 1632 -687 2529 -15 236
-7 830 15 1031 94 874 301 1586 677 2330 883 1747 2506 3016 4409 3444 288 65
612 114 885 135 77 6 156 13 175 15 86 8 679 5 810 -4z"/>
<path d="M5290 10193 c-353 -25 -665 -183 -874 -445 -273 -341 -346 -780 -197
-1189 108 -296 358 -560 648 -684 640 -276 1368 28 1618 673 99 257 106 558
18 819 -132 397 -468 703 -877 797 -86 20 -256 35 -336 29z"/>
<path d="M10090 10189 c-188 -15 -401 -92 -573 -206 -144 -96 -319 -295 -400
-458 -99 -198 -146 -468 -118 -680 37 -285 151 -516 350 -716 176 -176 369
-281 616 -335 108 -24 369 -24 475 0 247 55 445 161 616 331 189 189 303 417
349 698 14 85 6 294 -15 396 -125 614 -669 1020 -1300 970z"/>
<path d="M3396 5879 c6 -8 52 -68 101 -134 757 -1000 1842 -1701 3068 -1984
741 -171 1569 -180 2310 -25 880 184 1672 567 2365 1144 157 131 515 488 642
640 107 128 279 353 274 357 -2 2 -79 -48 -172 -110 -971 -656 -2088 -1080
-3234 -1228 -303 -39 -477 -50 -851 -56 -379 -6 -586 2 -889 33 -1237 126
-2423 561 -3470 1272 -85 58 -150 99 -144 91z"/>
</g>
</svg>
