<?xml version="1.0" standalone="no"?>
<!DOCTYPE svg PUBLIC "-//W3C//DTD SVG 20010904//EN"
 "http://www.w3.org/TR/2001/REC-SVG-20010904/DTD/svg10.dtd">
<svg version="1.0" xmlns="http://www.w3.org/2000/svg"
 width="980.000000pt" height="980.000000pt" viewBox="0 0 980.000000 980.000000"
 preserveAspectRatio="xMidYMid meet">

<g transform="translate(0.000000,980.000000) scale(0.100000,-0.100000)"
fill="#000000" stroke="none">
<path d="M4560 9789 c-927 -63 -1848 -406 -2595 -967 -358 -269 -720 -631
-987 -987 -212 -282 -410 -619 -551 -935 -726 -1628 -515 -3511 551 -4935 266
-354 631 -719 987 -987 1538 -1153 3626 -1298 5300 -369 177 98 479 296 620
406 1044 814 1709 1970 1874 3260 257 2009 -742 3961 -2527 4934 -803 438
-1743 642 -2672 580z m646 -919 c499 -39 971 -167 1419 -384 429 -208 773
-454 1102 -787 628 -635 1002 -1404 1125 -2309 19 -141 22 -211 22 -485 1
-342 -8 -452 -60 -735 -300 -1632 -1605 -2917 -3245 -3194 -261 -44 -349 -51
-679 -51 -268 1 -340 4 -480 23 -638 86 -1194 293 -1710 635 -881 584 -1505
1515 -1705 2540 -57 291 -69 427 -69 772 -1 342 8 453 60 735 201 1092 861
2056 1819 2655 257 161 646 338 935 425 256 77 578 138 835 159 147 12 483 13
631 1z"/>
<path d="M2918 7334 c-151 -36 -303 -151 -385 -291 -54 -93 -76 -179 -77 -298
-1 -219 91 -395 268 -513 101 -68 177 -92 306 -99 189 -10 331 45 465 181 124
126 178 257 178 431 0 167 -55 297 -178 421 -87 88 -176 140 -290 169 -72 18
-210 18 -287 -1z"/>
<path d="M6590 7334 c-111 -29 -199 -81 -285 -168 -126 -127 -178 -255 -178
-431 2 -327 246 -585 570 -603 114 -6 194 9 293 54 156 73 276 209 331 376 32
100 33 252 2 353 -37 118 -112 226 -210 305 -61 48 -177 103 -251 119 -72 15
-205 13 -272 -5z"/>
<path d="M4645 4274 c-16 -2 -73 -9 -125 -15 -857 -96 -1673 -599 -2166 -1335
-41 -61 -74 -115 -74 -121 0 -9 735 -456 770 -467 10 -4 28 16 57 62 66 106
203 271 310 372 332 316 734 511 1184 575 122 17 435 20 559 4 495 -61 954
-292 1294 -650 89 -93 217 -257 259 -330 12 -22 25 -39 28 -39 13 0 774 461
778 471 2 6 -31 61 -72 122 -443 656 -1118 1119 -1877 1287 -219 49 -343 62
-625 65 -148 2 -283 1 -300 -1z"/>
</g>
</svg>
